<svg width="312" height="312" xmlns="http://www.w3.org/2000/svg" xmlns:xlink="http://www.w3.org/1999/xlink" xml:space="preserve" overflow="hidden"><defs><clipPath id="clip0"><rect x="484" y="204" width="312" height="312"/></clipPath><clipPath id="clip1"><rect x="484" y="204" width="312" height="312"/></clipPath><clipPath id="clip2"><rect x="484" y="205" width="312" height="310"/></clipPath><clipPath id="clip3"><rect x="484" y="205" width="312" height="310"/></clipPath><clipPath id="clip4"><rect x="484" y="205" width="312" height="310"/></clipPath><clipPath id="clip5"><rect x="484" y="205" width="312" height="311"/></clipPath><clipPath id="clip6"><rect x="484" y="205" width="312" height="311"/></clipPath></defs><g clip-path="url(#clip0)" transform="translate(-484 -204)"><g clip-path="url(#clip1)"><g clip-path="url(#clip2)"><g clip-path="url(#clip3)"><g clip-path="url(#clip4)"><g clip-path="url(#clip5)"><g clip-path="url(#clip6)"><path d="M2291.66 1019.72 2230.34 1019.72C2209.92 1019.35 2193.03 1035.59 2192.51 1056.07L2192.51 1056.39C2188.79 1056.02 2185.01 1055.81 2181.29 1055.81 2150.29 1055.81 2120.56 1068.16 2098.63 1090.15 2076.71 1112.16 2064.4 1141.99 2064.4 1173.11 2064.36 1195 2070.5 1216.46 2082.09 1235L2060.3 1235C2039.89 1234.64 2022.99 1250.88 2022.48 1271.36L2022.48 1291.35C2022.99 1311.84 2039.89 1328.08 2060.3 1327.71L2121.63 1327.71C2142.04 1328.08 2158.94 1311.84 2159.45 1291.35L2159.45 1288.31C2166.65 1289.67 2173.96 1290.37 2181.29 1290.39 2219.18 1290.34 2254.69 1271.9 2276.57 1240.86 2277.1 1240.37 2277.53 1239.77 2277.84 1239.1 2290.46 1220.53 2297.49 1198.74 2298.11 1176.29 2298.73 1153.83 2292.91 1131.66 2281.35 1112.43L2291.66 1112.43C2312.07 1112.79 2328.97 1096.55 2329.49 1076.07L2329.49 1056.07C2328.97 1035.59 2312.07 1019.35 2291.66 1019.72ZM2192.51 1067.06 2192.51 1076.12C2192.51 1096.38 2202.13 1109.71 2218.06 1112.11 2217.85 1117.18 2217.32 1122.21 2216.47 1127.19L2215.19 1128C2212.71 1129.71 2210.04 1131.09 2207.22 1132.16 2195.91 1136.69 2187.13 1135.09 2182.73 1132.16 2180.29 1130.66 2178.74 1128.04 2178.64 1125.17 2178.64 1111.41 2170.24 1105.87 2159.56 1098.89L2156.32 1096.75C2150.1 1092.55 2153.98 1076.71 2156.85 1069.73L2156.85 1069.46C2164.85 1067.5 2173.06 1066.47 2181.29 1066.42 2185.07 1066.42 2188.79 1066.63 2192.51 1067.06ZM2104.3 1099.79C2104.94 1100.65 2122.63 1126.46 2111.64 1137.54 2101.64 1147.56 2108.71 1162.06 2115.57 1176.09 2121.41 1187.98 2127.84 1201.41 2125.87 1213.41L2118.33 1217.67C2111.74 1221.4 2100.05 1227.96 2092.88 1231.91 2079.5 1211.83 2073.33 1187.79 2075.41 1163.74 2077.5 1139.67 2087.69 1117.05 2104.3 1099.58ZM2148.83 1291.35C2148.31 1305.95 2136.18 1317.41 2121.63 1317.05L2060.3 1317.05C2045.75 1317.41 2033.62 1305.95 2033.1 1291.35L2033.1 1271.31C2033.62 1256.72 2045.75 1245.25 2060.3 1245.61L2088.41 1245.61C2090.44 1245.61 2090.86 1245.61 2123.54 1227.11L2123.86 1227.11C2123.35 1231.6 2123.18 1236.13 2123.32 1240.65 2123.32 1242.06 2123.88 1243.43 2124.88 1244.43 2125.87 1245.42 2127.23 1245.98 2128.63 1245.98 2146.23 1245.98 2148.83 1261.98 2148.83 1271.68ZM2169.02 1279.03C2170.91 1276.86 2173.18 1275.06 2175.71 1273.71 2185.38 1268.86 2186.34 1247.05 2186.61 1237.35 2187.27 1232.21 2190.09 1227.58 2194.36 1224.66 2200.1 1221.89 2208.4 1225.78 2214.35 1229.51 2237.56 1244.07 2234.91 1260.7 2233.42 1265.82 2217.53 1274.88 2199.57 1279.65 2181.29 1279.68 2177.19 1279.66 2173.1 1279.42 2169.02 1278.98ZM2269.98 1231.38C2262.8 1230.01 2256.71 1225.3 2253.56 1218.69 2249.78 1211.11 2251.54 1206.26 2255 1196.61 2258.32 1188.02 2260.69 1179.08 2262.06 1169.96 2264.87 1150.07 2280.44 1149.91 2284.85 1150.23 2286.55 1157.73 2287.46 1165.37 2287.56 1173.05 2287.56 1193.76 2281.52 1214.02 2270.19 1231.32ZM2282.25 1139.45C2275.72 1139.56 2269.37 1141.69 2264.08 1145.53 2257.01 1151.12 2252.56 1159.37 2251.75 1168.35 2250.42 1176.79 2248.18 1185.05 2245.06 1192.98 2241.44 1203.06 2238.31 1211.75 2244.15 1223.43 2248.02 1231.48 2254.92 1237.64 2263.34 1240.54 2257.97 1247.17 2251.83 1253.13 2245.06 1258.3 2245.06 1247.64 2240.27 1233.13 2220.19 1220.49 2208.29 1213.04 2198.09 1211.22 2190.01 1215.17 2178.32 1220.49 2176.3 1235.79 2176.25 1236.49 2176.22 1236.72 2176.22 1236.96 2176.25 1237.19 2176.25 1249.5 2173.81 1262.73 2171.2 1264.37 2166.74 1266.72 2162.83 1270 2159.72 1273.97L2159.72 1271.47C2159.72 1251.2 2150.1 1237.88 2134.17 1235.47 2134.39 1229.68 2135.07 1223.89 2136.18 1218.2 2140.12 1201.73 2132.3 1185.74 2125.55 1171.55 2118.8 1157.38 2115.25 1149.64 2119.6 1145.27 2137.2 1127.57 2114.29 1095.1 2113.33 1093.71 2113.03 1093.37 2112.68 1093.05 2112.33 1092.76 2121.94 1084.38 2132.97 1077.83 2144.9 1073.41 2142.29 1082.95 2140.12 1098.57 2150.9 1105.76L2154.19 1107.96C2164.83 1114.93 2168.44 1117.7 2168.44 1125.33 2168.43 1131.82 2171.73 1137.86 2177.21 1141.33 2182.21 1144.58 2188.08 1146.24 2194.04 1146.07 2200.06 1146 2206.01 1144.79 2211.58 1142.49 2215.02 1141.11 2218.28 1139.32 2221.3 1137.17L2224.38 1135.25 2234 1129.92C2242.88 1124.9 2260.57 1114.72 2264.98 1112.75L2269.07 1112.75C2274.67 1121 2279.1 1129.98 2282.25 1139.46ZM2318.91 1076.07C2318.39 1090.66 2306.27 1102.12 2291.71 1101.77L2263.55 1101.77C2261.52 1101.77 2261.11 1101.77 2228.37 1120.32 2228.88 1115.83 2229.05 1111.3 2228.9 1106.78 2228.9 1105.36 2228.34 1104.01 2227.34 1103 2226.35 1102.01 2224.99 1101.45 2223.59 1101.45 2206 1101.45 2203.39 1085.45 2203.39 1075.75L2203.39 1056.07C2203.91 1041.48 2216.04 1030.02 2230.6 1030.38L2291.66 1030.38C2306.21 1030.02 2318.34 1041.48 2318.86 1056.07Z" fill="#FFFFFF" fill-rule="evenodd" fill-opacity="1" transform="matrix(1.00323 0 0 1 -1541 -813.714)"/></g></g></g></g></g></g></g></svg>